<?xml version="1.0" encoding="utf-8"?>
<!-- Svg Vector Icons : http://www.onlinewebfonts.com/icon -->
<!DOCTYPE svg PUBLIC "-//W3C//DTD SVG 1.1//EN" "http://www.w3.org/Graphics/SVG/1.1/DTD/svg11.dtd">
<svg version="1.1" xmlns="http://www.w3.org/2000/svg" xmlns:xlink="http://www.w3.org/1999/xlink" x="0px" y="0px" viewBox="0 0 256 256" enable-background="new 0 0 256 256" xml:space="preserve">
<metadata> Svg Vector Icons : http://www.onlinewebfonts.com/icon </metadata>
<g><g><path fill="#000000" d="M162.8,128H93.2c-6.9,0-12.5,5.5-12.5,12.3c0,6.8,5.6,12.3,12.5,12.3h69.7c6.9,0,12.4-5.5,12.4-12.3C175.3,133.5,169.7,128,162.8,128z M162.8,172.3H93.2c-6.9,0-12.5,5.5-12.5,12.3c0,6.8,5.6,12.3,12.5,12.3h69.7c6.9,0,12.4-5.5,12.4-12.3C175.3,177.8,169.7,172.3,162.8,172.3z M30.9,226.3c0,10.9,8.9,19.7,19.9,19.7h154.3c11,0,19.9-8.8,19.9-19.7V59.2c0-10.9-8.9-19.7-19.9-19.7h-40.6C161.2,22.7,146.1,10,128,10c-18.1,0-33.2,12.7-36.6,29.5H50.8c-11,0-19.9,8.8-19.9,19.7V226.3z M66.8,64.1h23.9v8.9c0,6,4.9,10.8,11,10.8h52.8c6.1,0,11-4.8,11-10.8v-8.9h23.9c6.1,0,11,4.8,11,10.8v135.7c0,6-4.9,10.8-11,10.8H66.8c-6.1,0-11-4.8-11-10.8V74.9C55.8,68.9,60.7,64.1,66.8,64.1z M115.5,46.9c0-6.8,5.6-12.3,12.5-12.3c6.9,0,12.4,5.5,12.4,12.3c0,6.8-5.6,12.3-12.4,12.3C121.1,59.2,115.5,53.7,115.5,46.9z"/></g></g>
</svg>